<svg xmlns="http://www.w3.org/2000/svg"  viewBox="0 0 32 32" width="30px" height="30px"><path d="M5,9.583C5,7.052,7.052,5,9.583,5h12.833C24.948,5,27,7.052,27,9.583v12.833C27,24.948,24.948,27,22.417,27H9.583	C7.052,27,5,24.948,5,22.417V9.583z M9.6,18.485 M20.262,15.91L20.262,15.91l1.744-1.474l0.55-0.465	c0.354-0.3,0.451-0.766,0.309-1.164c-0.065-0.182-0.176-0.35-0.344-0.481l-4.854-3.759C17.178,8.189,16.589,8,16.001,8	c-0.589,0-1.178,0.189-1.667,0.568L9.48,12.327c-0.218,0.168-0.345,0.399-0.39,0.643c-0.052,0.282,0.006,0.581,0.186,0.823	c0.048,0.064,0.103,0.124,0.168,0.178l1.286,1.086l1.009,0.852l-0.001,0.001l2.506,2.117c0.505,0.427,1.13,0.64,1.756,0.64	c0.626,0,1.251-0.213,1.756-0.64L20.262,15.91z M22.52,17.66l-0.64-0.5l-2.83,2.39c-0.85,0.72-1.93,1.12-3.05,1.12	s-2.2-0.4-3.05-1.12l-2.83-2.39l-0.64,0.5c-0.54,0.41-0.55,1.21-0.03,1.65l4.8,4.05c1,0.85,2.5,0.85,3.5,0l4.8-4.05	C23.07,18.87,23.06,18.07,22.52,17.66z"/></svg>